<svg width="24" height="24" viewBox="0 0 24 24" fill="none" xmlns="http://www.w3.org/2000/svg">
<g clip-path="url(#clip0_304_23717)">
<mask id="mask0_304_23717" style="mask-type:alpha" maskUnits="userSpaceOnUse" x="3" y="3" width="19" height="19">
<path fill-rule="evenodd" clip-rule="evenodd" d="M22 3H3V22H22V3ZM20.5 10H15.5V18C15.5 19.38 16.62 20.5 18 20.5C19.38 20.5 20.5 19.38 20.5 18V10Z" fill="#D9D9D9"/>
</mask>
<g mask="url(#mask0_304_23717)">
<path d="M18 20.5H6.5C5.12 20.5 4 19.38 4 18V4H15.5V10L18 20.5Z" stroke="#121331" stroke-width="1.5" stroke-linecap="round" stroke-linejoin="round"/>
</g>
<path d="M15.5 10H20.5V18C20.5 19.38 19.38 20.5 18 20.5C16.62 20.5 15.5 19.38 15.5 18V10Z" stroke="#121331" stroke-width="1.5" stroke-linecap="round" stroke-linejoin="round"/>
<path d="M12.5 7H7V10.5H12.5V7Z" stroke="#121331" stroke-width="1.5" stroke-linecap="round" stroke-linejoin="round"/>
<path d="M7 13.5H12.5" stroke="#121331" stroke-width="1.5" stroke-linecap="round" stroke-linejoin="round"/>
<path d="M7 16.5601H12.5" stroke="#121331" stroke-width="1.5" stroke-linecap="round" stroke-linejoin="round"/>
</g>
<defs>
<clipPath id="clip0_304_23717">
<rect width="24" height="24" fill="white"/>
</clipPath>
</defs>
</svg>
